HIERARCHY
ROOT pelvis
{
	OFFSET 0.003123 -0.351407 0.012037
	CHANNELS 6 Xposition Yposition Zposition Zrotation Yrotation Xrotation 
	JOINT left_hip
	{
		OFFSET 0.058189 -0.092763 -0.026001
		CHANNELS 3 Zrotation Yrotation Xrotation
		JOINT left_knee
		{
			OFFSET 0.054695 -0.378753 -0.009396
			CHANNELS 3 Zrotation Yrotation Xrotation
			JOINT left_ankle
			{
				OFFSET -0.043453 -0.403059 -0.031876
				CHANNELS 3 Zrotation Yrotation Xrotation
				JOINT left_foot
				{
					OFFSET 0.047257 -0.057997 0.118216
					CHANNELS 3 Zrotation Yrotation Xrotation
					End Site
					{
						OFFSET 0.000000 0.000000 0.000000
					}
				}
			}
		}
	}
	JOINT right_hip
	{
		OFFSET -0.063267 -0.103908 -0.021250
		CHANNELS 3 Zrotation Yrotation Xrotation
		JOINT right_knee
		{
			OFFSET -0.044210 -0.362380 -0.016824
			CHANNELS 3 Zrotation Yrotation Xrotation
			JOINT right_ankle
			{
				OFFSET 0.015417 -0.410728 -0.020192
				CHANNELS 3 Zrotation Yrotation Xrotation
				JOINT right_foot
				{
					OFFSET -0.038812 -0.058328 0.119049
					CHANNELS 3 Zrotation Yrotation Xrotation
					End Site
					{
						OFFSET 0.000000 0.000000 0.000000
					}
				}
			}
		}
	}
	JOINT spine_1
	{
		OFFSET -0.002763 0.109891 -0.027618
		CHANNELS 3 Zrotation Yrotation Xrotation
		JOINT spine_2
		{
			OFFSET 0.009448 0.131853 -0.005940
			CHANNELS 3 Zrotation Yrotation Xrotation
			JOINT spine_3
			{
				OFFSET -0.011330 0.052235 0.028447
				CHANNELS 3 Zrotation Yrotation Xrotation
				JOINT neck
				{
					OFFSET -0.012164 0.165167 -0.031615
					CHANNELS 3 Zrotation Yrotation Xrotation
					JOINT head
					{
						OFFSET 0.024783 0.160452 0.020737
						CHANNELS 3 Zrotation Yrotation Xrotation
						End Site
						{
							OFFSET 0.000000 0.000000 0.000000
						}
					}
				}
				JOINT left_collar
				{
					OFFSET 0.046364 0.084944 -0.007220
					CHANNELS 3 Zrotation Yrotation Xrotation
					JOINT left_shoulder
					{
						OFFSET 0.119239 0.057728 -0.015461
						CHANNELS 3 Zrotation Yrotation Xrotation
						JOINT left_elbow
						{
							OFFSET 0.254123 -0.072151 -0.042459
							CHANNELS 3 Zrotation Yrotation Xrotation
							JOINT left_wrist
							{
								OFFSET 0.251987 0.023221 -0.002472
								CHANNELS 3 Zrotation Yrotation Xrotation
								JOINT left_index_1
								{
									OFFSET 0.101902 -0.008688 0.019351
									CHANNELS 3 Zrotation Yrotation Xrotation
									JOINT left_index_2
									{
										OFFSET 0.030149 -0.011154 0.001151
										CHANNELS 3 Zrotation Yrotation Xrotation
										JOINT left_index_3
										{
											OFFSET 0.006504 -0.021577 -0.002433
											CHANNELS 3 Zrotation Yrotation Xrotation
											End Site
											{
												OFFSET 0.000000 0.000000 0.000000
											}
										}
									}
								}
								JOINT left_middle_1
								{
									OFFSET 0.109398 -0.006328 -0.003981
									CHANNELS 3 Zrotation Yrotation Xrotation
									JOINT left_middle_2
									{
										OFFSET 0.026472 -0.015218 -0.004641
										CHANNELS 3 Zrotation Yrotation Xrotation
										JOINT left_middle_3
										{
											OFFSET 0.005022 -0.023347 -0.001911
											CHANNELS 3 Zrotation Yrotation Xrotation
											End Site
											{
												OFFSET 0.000000 0.000000 0.000000
											}
										}
									}
								}
								JOINT left_pinky_1
								{
									OFFSET 0.084047 -0.014539 -0.043750
									CHANNELS 3 Zrotation Yrotation Xrotation
									JOINT left_pinky_2
									{
										OFFSET 0.012124 -0.014448 -0.005375
										CHANNELS 3 Zrotation Yrotation Xrotation
										JOINT left_pinky_3
										{
											OFFSET 0.003798 -0.018853 0.000167
											CHANNELS 3 Zrotation Yrotation Xrotation
											End Site
											{
												OFFSET 0.000000 0.000000 0.000000
											}
										}
									}
								}
								JOINT left_ring_1
								{
									OFFSET 0.097444 -0.009268 -0.027345
									CHANNELS 3 Zrotation Yrotation Xrotation
									JOINT left_ring_2
									{
										OFFSET 0.023561 -0.016057 -0.001895
										CHANNELS 3 Zrotation Yrotation Xrotation
										JOINT left_ring_3
										{
											OFFSET 0.004257 -0.023548 0.000814
											CHANNELS 3 Zrotation Yrotation Xrotation
											End Site
											{
												OFFSET 0.000000 0.000000 0.000000
											}
										}
									}
								}
								JOINT left_thumb_1
								{
									OFFSET 0.040636 -0.017977 0.025611
									CHANNELS 3 Zrotation Yrotation Xrotation
									JOINT left_thumb_2
									{
										OFFSET 0.021637 -0.017639 0.011623
										CHANNELS 3 Zrotation Yrotation Xrotation
										JOINT left_thumb_3
										{
											OFFSET 0.024002 -0.008356 0.006548
											CHANNELS 3 Zrotation Yrotation Xrotation
											End Site
											{
												OFFSET 0.000000 0.000000 0.000000
											}
										}
									}
								}
							}
						}
					}
				}
				JOINT right_collar
				{
					OFFSET -0.047695 0.084339 -0.013400
					CHANNELS 3 Zrotation Yrotation Xrotation
					JOINT right_shoulder
					{
						OFFSET -0.102578 0.053524 -0.012669
						CHANNELS 3 Zrotation Yrotation Xrotation
						JOINT right_elbow
						{
							OFFSET -0.271150 -0.036492 -0.026467
							CHANNELS 3 Zrotation Yrotation Xrotation
							JOINT right_wrist
							{
								OFFSET -0.249267 -0.004533 -0.015325
								CHANNELS 3 Zrotation Yrotation Xrotation
								JOINT right_index_1
								{
									OFFSET -0.099881 -0.011783 0.019600
									CHANNELS 3 Zrotation Yrotation Xrotation
									JOINT right_index_2
									{
										OFFSET -0.030148 -0.011154 0.001151
										CHANNELS 3 Zrotation Yrotation Xrotation
										JOINT right_index_3
										{
											OFFSET -0.006505 -0.021577 -0.002432
											CHANNELS 3 Zrotation Yrotation Xrotation
											End Site
											{
												OFFSET 0.000000 0.000000 0.000000
											}
										}
									}
								}
								JOINT right_middle_1
								{
									OFFSET -0.107376 -0.009422 -0.003734
									CHANNELS 3 Zrotation Yrotation Xrotation
									JOINT right_middle_2
									{
										OFFSET -0.026472 -0.015218 -0.004641
										CHANNELS 3 Zrotation Yrotation Xrotation
										JOINT right_middle_3
										{
											OFFSET -0.005022 -0.023347 -0.001911
											CHANNELS 3 Zrotation Yrotation Xrotation
											End Site
											{
												OFFSET 0.000000 0.000000 0.000000
											}
										}
									}
								}
								JOINT right_pinky_1
								{
									OFFSET -0.082027 -0.017634 -0.043503
									CHANNELS 3 Zrotation Yrotation Xrotation
									JOINT right_pinky_2
									{
										OFFSET -0.012123 -0.014448 -0.005374
										CHANNELS 3 Zrotation Yrotation Xrotation
										JOINT right_pinky_3
										{
											OFFSET -0.003798 -0.018852 0.000167
											CHANNELS 3 Zrotation Yrotation Xrotation
											End Site
											{
												OFFSET 0.000000 0.000000 0.000000
											}
										}
									}
								}
								JOINT right_ring_1
								{
									OFFSET -0.095423 -0.012362 -0.027099
									CHANNELS 3 Zrotation Yrotation Xrotation
									JOINT right_ring_2
									{
										OFFSET -0.023561 -0.016057 -0.001895
										CHANNELS 3 Zrotation Yrotation Xrotation
										JOINT right_ring_3
										{
											OFFSET -0.004257 -0.023548 0.000816
											CHANNELS 3 Zrotation Yrotation Xrotation
											End Site
											{
												OFFSET 0.000000 0.000000 0.000000
											}
										}
									}
								}
								JOINT right_thumb_1
								{
									OFFSET -0.038613 -0.021074 0.025861
									CHANNELS 3 Zrotation Yrotation Xrotation
									JOINT right_thumb_2
									{
										OFFSET -0.021636 -0.017639 0.011623
										CHANNELS 3 Zrotation Yrotation Xrotation
										JOINT right_thumb_3
										{
											OFFSET -0.024004 -0.008353 0.006547
											CHANNELS 3 Zrotation Yrotation Xrotation
											End Site
											{
												OFFSET 0.000000 0.000000 0.000000
											}
										}
									}
								}
							}
						}
					}
				}
			}
		}
	}
}
MOTION
Frames: 4
Frame Time: 0.050000
-0.000327 0.946420 -0.002052 0.683949 1.209114 -2.778867 11.785391 -0.578116 -7.005519 -4.828516 -0.366692 10.830139 -0.088191 4.850291 6.745026 0.000000 0.000000 0.000000 -7.794058 0.257863 0.691535 6.467996 -0.495224 7.539537 -4.754636 -10.878264 3.552920 0.000000 0.000000 0.000000 2.226568 -0.397139 5.788763 -8.248390 -0.193285 -16.467992 7.546089 1.880482 28.747399 2.721297 1.112525 -9.230253 0.000000 0.000000 0.000000 -1.871306 -2.931830 1.251922 -70.234123 -21.747764 -5.771305 -170.425504 -57.196671 -174.730118 2.040452 0.164663 -25.983130 1.562438 1.657351 0.480417 24.925126 -0.881719 -8.734809 0.000000 0.000000 0.000000 -3.003257 -5.430180 -3.312974 19.222058 -0.174952 -2.910105 0.000000 0.000000 0.000000 9.330418 -13.781476 -20.399780 10.428262 2.477024 11.792646 0.000000 0.000000 0.000000 -4.830548 -8.148637 -5.372415 21.253862 1.778411 0.013647 0.000000 0.000000 0.000000 26.297139 15.674129 -1.067414 -22.359022 -9.370561 4.028612 0.000000 0.000000 0.000000 -0.360835 9.723186 5.055956 75.451989 28.002276 8.610780 154.354113 71.288150 144.502269 5.513477 -2.447929 -11.500630 1.183251 -8.146336 2.674790 28.976126 -6.563099 12.335296 0.000000 0.000000 0.000000 16.872970 -7.510500 0.696580 10.472401 -1.152500 4.065627 0.000000 0.000000 0.000000 13.181138 3.215192 -8.038607 -9.511517 -2.693807 12.039913 0.000000 0.000000 0.000000 20.553746 -2.859124 0.863756 -4.395036 -1.459493 4.325693 0.000000 0.000000 0.000000 -11.129946 -15.038974 5.810548 0.321568 9.906937 -4.417037 0.000000 0.000000 0.000000 
0.001087 0.947226 -0.012611 0.169913 0.341942 -1.623349 12.060075 -0.625021 -8.920826 -4.010011 -0.605788 12.433994 0.572864 6.435776 7.567024 0.000000 0.000000 0.000000 -7.240146 0.439059 -2.279004 6.555532 -0.513389 9.015123 -4.818187 -11.118894 3.860891 0.000000 0.000000 0.000000 1.637217 -0.438295 6.083334 -9.153121 -0.012307 -16.839749 8.524813 2.079335 29.002874 3.635576 1.127758 -9.881610 0.000000 0.000000 0.000000 -2.554391 -2.580660 1.012695 -71.390307 -22.657912 -5.266772 -171.707841 -55.914793 -172.170402 -0.980800 -0.006336 -26.026807 -0.113774 -1.249553 -0.320375 24.820485 -0.554881 -2.887217 0.000000 0.000000 0.000000 -3.970200 -3.768122 -2.527577 22.127322 -0.052495 2.634979 0.000000 0.000000 0.000000 11.431333 -8.539814 -11.638645 10.052446 2.719844 13.313618 0.000000 0.000000 0.000000 -3.085495 -4.350024 -3.036342 23.075887 2.073655 4.650317 0.000000 0.000000 0.000000 20.817914 11.651420 -2.929288 -21.235937 -7.835956 3.807709 0.000000 0.000000 0.000000 -0.998896 9.525963 4.929659 77.608706 27.147836 8.490892 165.317028 70.669719 159.644890 10.897642 -5.705284 -19.221113 -1.019593 -4.778932 1.745813 5.176501 -1.278456 7.826958 0.000000 0.000000 0.000000 7.312083 -2.027288 -0.064511 -7.378124 -0.716680 4.924952 0.000000 0.000000 0.000000 -0.316112 1.884441 -3.454176 -8.177399 -2.723253 10.555849 0.000000 0.000000 0.000000 8.084617 0.191661 -0.445587 -10.460904 -2.265622 6.345115 0.000000 0.000000 0.000000 -13.380048 -14.552655 2.594347 15.832609 9.332727 -0.036693 0.000000 0.000000 0.000000 
0.003855 0.946420 -0.013931 -0.318443 0.322803 -0.649965 12.175892 -0.624847 -8.730422 -3.432085 -0.627689 11.380867 -0.083765 4.276373 5.975347 0.000000 0.000000 0.000000 -6.159954 0.549079 -4.086627 5.732121 -0.405162 9.132149 -5.813078 -13.541152 5.908319 0.000000 0.000000 0.000000 2.576547 -0.471439 6.292332 -8.407321 -0.645626 -18.086777 6.737091 1.570081 29.605613 4.557262 1.083853 -10.207914 0.000000 0.000000 0.000000 -1.425452 -1.888394 0.787954 -71.152124 -26.068202 -3.795964 -175.753792 -57.690080 -164.870967 -2.218388 -3.898044 -24.629796 -2.726784 -5.775380 -1.267438 19.252551 -0.457673 -2.914845 0.000000 0.000000 0.000000 -9.439278 -5.239791 -3.665510 16.068473 -0.215222 -1.699621 0.000000 0.000000 0.000000 5.904368 -8.694352 -13.081085 6.089623 2.720150 10.127481 0.000000 0.000000 0.000000 -7.860354 -6.680851 -4.386164 17.108868 1.512032 0.911640 0.000000 0.000000 0.000000 20.131737 7.674285 -6.216271 -21.848186 -3.793073 4.801718 0.000000 0.000000 0.000000 -1.636453 9.845705 5.071831 79.783059 30.647861 11.153789 167.234009 73.311715 163.462401 13.338941 -2.054857 -17.773957 -3.767959 -10.110427 4.523340 49.965126 -0.206124 4.462052 0.000000 0.000000 0.000000 18.334626 -12.462543 3.458176 14.215998 15.016972 -17.507481 0.000000 0.000000 0.000000 26.354160 -5.783704 0.559066 -31.306081 3.971601 -8.505600 0.000000 0.000000 0.000000 24.141659 -4.941424 2.591692 -6.814687 2.573525 -5.230385 0.000000 0.000000 0.000000 -9.553663 -11.422824 0.953429 -3.628959 4.830629 -4.206962 0.000000 0.000000 0.000000 
0.002382 0.947226 -0.015251 0.068105 0.728524 -0.825370 12.653648 -0.577921 -7.525974 -3.932365 -0.372136 9.063301 -1.303511 1.616246 5.268489 0.000000 0.000000 0.000000 -6.795544 0.483296 -3.119979 6.045357 -0.439529 8.099929 -5.364098 -12.643651 5.501873 0.000000 0.000000 0.000000 2.430892 -0.491068 6.591929 -8.552959 -0.593995 -18.185921 7.146642 1.183195 29.555700 4.605075 1.339041 -11.620070 0.000000 0.000000 0.000000 -1.847631 -2.212056 0.914104 -70.865963 -27.245113 -3.368270 -175.335224 -58.001186 -165.690924 -1.110239 -4.349804 -23.979894 -3.533217 -4.321480 -0.827947 15.756045 -0.602674 -6.239818 0.000000 0.000000 0.000000 -11.823543 -5.398225 -3.868353 12.443270 -0.062114 -0.959853 0.000000 0.000000 0.000000 0.827215 -9.482954 -14.749290 3.389737 3.045993 9.539581 0.000000 0.000000 0.000000 -10.643961 -8.476857 -5.315335 14.583512 1.910794 4.007663 0.000000 0.000000 0.000000 19.480130 7.152301 -6.402756 -21.870718 -3.498959 4.773810 0.000000 0.000000 0.000000 -3.149762 9.956243 5.063550 79.181567 31.322881 11.494041 170.700506 73.881207 168.270412 10.442302 -3.710004 -17.158034 3.702645 -4.722191 1.574055 28.292982 -0.105286 5.073382 0.000000 0.000000 0.000000 21.162488 -3.537416 -1.638785 -7.735367 2.861089 -7.607042 0.000000 0.000000 0.000000 15.667760 2.888942 -7.822551 -18.717938 -0.203533 5.431436 0.000000 0.000000 0.000000 20.524289 3.550085 -2.580745 -14.024713 -1.831529 3.067154 0.000000 0.000000 0.000000 -12.101421 -14.535351 2.997197 4.335740 11.094610 -4.948065 0.000000 0.000000 0.000000 
